<?xml version="1.0" encoding="UTF-8" standalone="no"?>
<!-- Created with Inkscape (http://www.inkscape.org/) -->

<svg
   width="294.0947mm"
   height="51.451641mm"
   viewBox="0 0 294.0947 51.451641"
   version="1.1"
   id="svg1"
   xml:space="preserve"
   xmlns="http://www.w3.org/2000/svg"
   xmlns:svg="http://www.w3.org/2000/svg"><defs
     id="defs1" /><g
     id="layer2"
     transform="translate(-268.34132,-315.8016)"><g
       id="g4"
       transform="matrix(2.141879,0,0,2.141879,-296.83993,-74.773099)"><text
         xml:space="preserve"
         style="font-size:19.4028px;letter-spacing:-1.44727px;writing-mode:lr-tb;direction:ltr;fill:#ffffff;fill-opacity:1;stroke-width:0.264583"
         x="286.07587"
         y="197.95531"
         id="text1"><tspan
           id="tspan1"
           style="font-style:italic;font-variant:normal;font-weight:bold;font-stretch:normal;font-size:19.4028px;font-family:Montserrat;-inkscape-font-specification:'Montserrat Bold Italic';font-variant-ligatures:normal;font-variant-caps:normal;font-variant-numeric:normal;font-variant-east-asian:normal;letter-spacing:-1.44727px;writing-mode:lr-tb;fill:#ffffff;fill-opacity:1;stroke-width:0.264583"
           x="286.07587"
           y="197.95531">POWERLINE</tspan></text><text
         xml:space="preserve"
         style="font-size:6.35px;letter-spacing:4.29683px;writing-mode:lr-tb;direction:ltr;fill:#f6582b;fill-opacity:1;stroke-width:0.264583"
         x="285.25565"
         y="204.49518"
         id="text1-7"><tspan
           id="tspan1-8"
           style="font-style:italic;font-variant:normal;font-weight:800;font-stretch:normal;font-size:6.35px;font-family:Montserrat;-inkscape-font-specification:'Montserrat, Ultra-Bold Italic';font-variant-ligatures:normal;font-variant-caps:normal;font-variant-numeric:normal;font-variant-east-asian:normal;letter-spacing:4.29683px;writing-mode:lr-tb;direction:ltr;fill:#f6582b;fill-opacity:1;stroke-width:0.264583"
           x="285.25565"
           y="204.49518">MULTISERVICIOS</tspan></text></g><g
       id="g3"
       style="display:inline;fill:#f6582b;fill-opacity:1"
       transform="translate(30.367219,199.62626)"><path
         id="path3"
         style="fill:#f6582b;fill-opacity:1;stroke-width:0.296177"
         d="m 256.51096,128.62626 c -10.46406,0.82049 -18.53692,9.55117 -18.53686,20.04735 -5e-5,8.51578 5.36396,16.10823 13.3904,18.95337 l 3.84111,-12.75375 -3.10627,-0.46353 4.51755,-14.90452 -3.54397,0.56482 c 0,0 2.64955,-8.89059 3.43804,-11.44374 z" /><path
         id="path3-8"
         style="fill:#ffffff;fill-opacity:1;stroke-width:0.296177"
         d="m 264.56266,116.17534 -4.68395,9.31054 6.53965,-1.30173 -7.45277,15.13448 6.38721,-1.22008 -13.25346,16.31115 a 20.108772,20.108772 0 0 0 6.47971,1.07228 20.108772,20.108772 0 0 0 20.10885,-20.10885 20.108772,20.108772 0 0 0 -14.12524,-19.19779 z" /></g></g></svg>
