<?xml version="1.0" encoding="UTF-8" standalone="no"?>
<!-- Created with Inkscape (http://www.inkscape.org/) -->

<svg
   width="40.713795mm"
   height="51.451641mm"
   viewBox="0 0 40.713795 51.451641"
   version="1.1"
   id="svg1"
   xml:space="preserve"
   inkscape:version="1.4.3 (0d15f75042, 2025-12-25)"
   sodipodi:docname="ps-logo-inkscape.svg"
   inkscape:export-batch-name="logo"
   inkscape:export-batch-path="/home/ledesmx/Documents"
   xmlns:inkscape="http://www.inkscape.org/namespaces/inkscape"
   xmlns:sodipodi="http://sodipodi.sourceforge.net/DTD/sodipodi-0.dtd"
   xmlns="http://www.w3.org/2000/svg"
   xmlns:svg="http://www.w3.org/2000/svg"><sodipodi:namedview
     id="namedview1"
     pagecolor="#ffffff"
     bordercolor="#000000"
     borderopacity="0.25"
     inkscape:showpageshadow="2"
     inkscape:pageopacity="0.0"
     inkscape:pagecheckerboard="0"
     inkscape:deskcolor="#d1d1d1"
     inkscape:document-units="mm"
     inkscape:zoom="0.52785733"
     inkscape:cx="2820.838"
     inkscape:cy="1493.7748"
     inkscape:window-width="1920"
     inkscape:window-height="1048"
     inkscape:window-x="0"
     inkscape:window-y="0"
     inkscape:window-maximized="1"
     inkscape:current-layer="layer3-2"><inkscape:page
       x="0"
       y="0"
       width="40.713795"
       height="51.451641"
       id="page2"
       margin="0"
       bleed="0" /></sodipodi:namedview><defs
     id="defs1" /><g
     id="g3-1-2-7"
     style="display:inline;fill:#f6582b;fill-opacity:1"
     transform="translate(-237.97406,-116.17534)"
     inkscape:label="powerline-logo"><path
       id="path3-7-8-6"
       style="fill:#f6582b;fill-opacity:1;stroke-width:0.296177"
       d="m 256.51096,128.62626 c -10.46406,0.82049 -18.53692,9.55117 -18.53686,20.04735 -5e-5,8.51578 5.36396,16.10823 13.3904,18.95337 l 3.84111,-12.75375 -3.10627,-0.46353 4.51755,-14.90452 -3.54397,0.56482 c 0,0 2.64955,-8.89059 3.43804,-11.44374 z"
       sodipodi:nodetypes="cscccccc" /><path
       id="path3-8-2-9-5"
       style="fill:#000002;fill-opacity:1;stroke-width:0.296177"
       d="m 264.56266,116.17534 -4.68395,9.31054 6.53965,-1.30173 -7.45277,15.13448 6.38721,-1.22008 -13.25346,16.31115 a 20.108772,20.108772 0 0 0 6.47971,1.07228 20.108772,20.108772 0 0 0 20.10885,-20.10885 20.108772,20.108772 0 0 0 -14.12524,-19.19779 z" /></g></svg>
