<?xml version="1.0" encoding="UTF-8" standalone="no"?>
<!-- Created with Inkscape (http://www.inkscape.org/) -->

<svg
   width="80.455276mm"
   height="80.455269mm"
   viewBox="0 0 80.455276 80.455269"
   version="1.1"
   id="svg1"
   xml:space="preserve"
   xmlns="http://www.w3.org/2000/svg"
   xmlns:svg="http://www.w3.org/2000/svg"><defs
     id="defs1" /><g
     id="layer1"
     transform="translate(-250.29102,-14.802633)"><g
       id="g4"><circle
         style="opacity:1;fill:#ffffff;fill-opacity:1;stroke-width:0.638201"
         id="path3"
         cx="290.51865"
         cy="55.030266"
         r="40.227634" /><g
         id="g3"
         transform="matrix(1.8359319,0,0,1.8359319,-143.13597,-47.576554)"><path
           id="path1"
           style="opacity:1;fill:#f35c27;fill-opacity:1;stroke-width:0.412368"
           d="m 234.93258,45.721317 a 15.346774,15.346774 0 0 0 -14.45493,15.321029 15.346774,15.346774 0 0 0 10.39161,14.524695 c 0.402,-1.689509 1.89694,-6.249216 3.30678,-10.430888 l -2.49856,-0.212907 3.4153,-10.800375 -2.86081,0.355018 z" /><path
           id="path1-2"
           style="opacity:1;fill:#000000;fill-opacity:1;stroke-width:0.412368"
           d="m 241.02782,36.209236 -3.73931,7.145817 5.08083,-0.878499 -5.5516,11.2913 4.79867,-0.690397 -10.05882,12.321212 a 15.346774,15.346774 0 0 0 5.02605,0.84646 15.346774,15.346774 0 0 0 15.34687,-15.346867 15.346774,15.346774 0 0 0 -10.90269,-14.689026 z" /></g></g></g></svg>
