<svg xmlns="http://www.w3.org/2000/svg" viewBox="0 0 800 520" role="img" aria-labelledby="title desc">
  <title id="title">Venta de material electrico</title>
  <desc id="desc">Ilustracion generica con cajas, cableado y componentes electricos.</desc>
  <defs>
    <linearGradient id="bg" x1="0" y1="0" x2="1" y2="1">
      <stop offset="0%" stop-color="#141414"/>
      <stop offset="100%" stop-color="#050505"/>
    </linearGradient>
  </defs>
  <rect width="800" height="520" fill="url(#bg)"/>
  <circle cx="140" cy="120" r="110" fill="#f3582c" fill-opacity=".14"/>
  <rect x="54" y="74" width="692" height="372" rx="32" fill="#0e0e0e" stroke="#2d2d2d"/>
  <rect x="106" y="142" width="170" height="202" rx="22" fill="#151515" stroke="#f3582c"/>
  <rect x="314" y="112" width="170" height="232" rx="22" fill="#151515" stroke="#3a3a3a"/>
  <rect x="522" y="162" width="170" height="182" rx="22" fill="#151515" stroke="#3a3a3a"/>
  <circle cx="191" cy="215" r="34" fill="#f3582c"/>
  <circle cx="379" cy="185" r="22" fill="#fff"/>
  <circle cx="429" cy="185" r="22" fill="#fff" fill-opacity=".58"/>
  <circle cx="607" cy="228" r="26" fill="#fff"/>
  <path d="M145 280h92m-92 28h62m214-42h42m-42 28h42m120-10h48" stroke="#fff" stroke-opacity=".76" stroke-width="12" stroke-linecap="round"/>
  <path d="M191 182v66m-33-33h66" stroke="#fff" stroke-width="10" stroke-linecap="round"/>
  <path d="M290 388c66-76 170-76 236 0" fill="none" stroke="#f3582c" stroke-width="10" stroke-linecap="round"/>
  <text x="84" y="118" fill="#fff" font-family="Arial, Helvetica, sans-serif" font-size="34" font-weight="700">MATERIAL ELECTRICO</text>
</svg>
